<?xml version="1.0" encoding="utf-8"?>
<!-- Generator: Adobe Illustrator 25.0.1, SVG Export Plug-In . SVG Version: 6.00 Build 0)  -->
<!DOCTYPE svg PUBLIC "-//W3C//DTD SVG 1.1//EN" "http://www.w3.org/Graphics/SVG/1.1/DTD/svg11.dtd" [
	<!ENTITY ns_extend "http://ns.adobe.com/Extensibility/1.0/">
	<!ENTITY ns_ai "http://ns.adobe.com/AdobeIllustrator/10.0/">
	<!ENTITY ns_graphs "http://ns.adobe.com/Graphs/1.0/">
	<!ENTITY ns_vars "http://ns.adobe.com/Variables/1.0/">
	<!ENTITY ns_imrep "http://ns.adobe.com/ImageReplacement/1.0/">
	<!ENTITY ns_sfw "http://ns.adobe.com/SaveForWeb/1.0/">
	<!ENTITY ns_custom "http://ns.adobe.com/GenericCustomNamespace/1.0/">
	<!ENTITY ns_adobe_xpath "http://ns.adobe.com/XPath/1.0/">
]>
<svg version="1.1" id="Layer_1" xmlns:x="&ns_extend;" xmlns:i="&ns_ai;" xmlns:graph="&ns_graphs;"
	 xmlns="http://www.w3.org/2000/svg" xmlns:xlink="http://www.w3.org/1999/xlink" x="0px" y="0px" width="512px" height="512px"
	 viewBox="0 0 512 512" style="enable-background:new 0 0 512 512;" xml:space="preserve">
<style type="text/css">
	.st0{fill:#FEFEFE;}
	.st1{fill:#1D1D1B;}
	.st2{fill:#0E8D37;}
	.st3{fill:#F8F8F7;}
	.st4{fill:#41714D;}
	.st5{fill:#476048;}
</style>
<metadata>
	<sfw  xmlns="&ns_sfw;">
		<slices></slices>
		<sliceSourceBounds  bottomLeftOrigin="true" height="512" width="512" x="0" y="0"></sliceSourceBounds>
	</sfw>
</metadata>
<g id="_x39_mbWod_1_">
	<g>
		<path class="st0" d="M511.913,255.997c0,83.944-0.023,167.887,0.086,251.831c0.004,3.279-0.461,4.169-4.017,4.166
			C340.078,511.876,172.175,511.874,4.273,512c-3.766,0.003-4.274-0.971-4.273-4.415C0.096,339.865,0.095,172.144,0.002,4.424
			C0,0.999,0.479-0.003,4.265,0c167.903,0.128,335.806,0.125,503.709,0.009c3.542-0.002,4.03,0.864,4.026,4.158
			C511.89,88.11,511.913,172.053,511.913,255.997z"/>
		<path class="st1" d="M424.45,435.9c7.438,4.572,13.706,8.563,20.119,12.304c2.907,1.696,3.653,3.43,2.597,6.841
			c-5.252,16.973-14.401,31.074-29.773,40.403c-12.465,7.564-25.215,7.453-37.663-0.401c-2.173-1.371-4.02-1.97-6.849-1.458
			c-16.045,2.905-31.89,1.978-46.911-4.812c-12.768-5.772-21.786-14.709-21.96-29.875c-0.083-7.283,1.214-9.073,8.227-10.974
			c11.056-2.998,21.365,0.024,31.459,4.33c0.152,0.065,0.282,0.196,0.438,0.237c2.466,0.649,4.946,4.245,6.854,2.621
			c3.194-2.718,3.365-7.426,3.815-11.53c0.27-2.459-2.373-2.03-3.687-2.379c-8.985-2.387-18.018-4.584-26.604-8.245
			c-11.22-4.784-19.406-12.155-21.07-24.984c-0.679-5.234,0.675-10.251,1.97-15.23c5.113-19.663,1.549-26.091-18.157-31.741
			c-14.277-4.093-29.048-5.499-43.699-7.525c-30.646-4.238-60.876-10.768-91.218-16.668c-29.351-5.707-58.804-10.972-87.685-18.852
			c-10.591-2.89-20.98-6.417-30.389-12.246c-8.404-5.206-15.116-11.879-18.272-21.609c-1.597-4.923-1.117-9.464,1.528-13.857
			c6.811-11.31,17.549-17.011,29.762-20.134c16.654-4.257,33.743-5.986,50.844-7.02c43.208-2.612,86.357-5.672,129.246-11.817
			c21.393-3.065,42.751-6.127,63.851-10.964c16.249-3.725,29.143-11.983,38.127-25.935c15.005-23.301,36.608-37.271,62.803-44.532
			c16.783-4.652,32.781-1.935,47.89,6.833c21.259,12.335,33.272,31.61,40.687,54.155c7.426,22.578,10.712,45.937,11.158,69.663
			c0.599,31.916-2.143,63.503-11.091,94.274c-5.426,18.66-14.065,35.542-29.736,47.958
			C443.555,428.678,435.036,432.652,424.45,435.9z"/>
		<path class="st2" d="M481.935,311.956c-1.142,26.657-4.424,52.871-15.66,77.499c-5.72,12.538-15.557,20.937-27.281,27.423
			c-8.749,4.84-17.971,8.636-27.47,11.768c-5.372,1.771-5.363,2.38-1.621,6.874c4.535,5.447,10.684,8.354,16.793,11.4
			c10.073,5.023,9.95,4.978,5.754,15.225c-2.819,6.884-7.038,12.846-11.827,18.35c-8.592,9.875-19.934,11.866-32.284,10.206
			c-2.522-0.339-3.396-1.925-3.586-4.52c-0.72-9.805,4.611-15.965,12.218-20.685c4.382-2.719,9.152-4.803,14.167-6.067
			c3.658-0.921,3.153-2.776,1.51-4.987c-2.763-3.72-6.773-5.934-10.758-7.933c-6.384-3.203-13.049-5.843-19.474-8.969
			c-2.749-1.337-3.472,0.173-4.427,2.125c-5.175,10.575-7.283,21.973-9.091,33.457c-0.566,3.596-1.264,7.175-1.696,10.786
			c-0.283,2.365-1.481,3.103-3.673,2.884c-11.531-1.148-23.198-1.47-34.08-6.244c-7.579-3.325-13.065-8.376-15.002-16.76
			c-1.269-5.493-0.64-6.672,4.699-8.098c7.582-2.025,14.387,0.58,21.144,3.45c4.284,1.82,8.48,3.852,12.791,5.603
			c2.596,1.055,4.531,0.602,5.836-2.475c3.065-7.23,5.313-14.59,6.252-22.433c0.347-2.902-0.809-3.836-2.907-4.833
			c-6.637-3.152-13.687-5.085-20.7-7.123c-7.195-2.091-14.315-4.289-20.272-9.147c-6.48-5.285-7.965-12.268-7.33-20.162
			c0.26-3.228,2.428-2.588,4.299-2.598c7.036-0.039,13.855-1.11,20.384-3.852c12.728-5.347,20.018-15.036,22.165-28.468
			c0.632-3.954,1.744-5.409,5.738-4.083c1.581,0.525,4.049,1.432,4.774-0.703c0.549-1.617-1.718-2.577-3.151-3.353
			c-6.549-3.543-13.388-4.899-20.61-2.318c-1.332,0.476-3.18,0.949-3.066,2.806c0.124,2.017,1.943,2.016,3.44,1.966
			c4.108-0.139,4.112,1.836,3.174,5.103c-3.213,11.187-8.827,20.127-20.901,23.173c-3.354,0.846-6.857,1.195-10.316,1.503
			c-4.037,0.359-2.892-2.802-2.866-4.865c0.147-11.627-4.492-20.407-14.642-26.441c-7.275-4.326-15.19-6.656-23.276-8.508
			c-17.952-4.11-36.437-4.705-54.518-7.998c-46.091-8.395-92.3-16.188-137.8-27.55c-14.646-3.657-29.484-6.639-43.478-12.518
			c-5.231-2.198-10.098-4.996-14.092-9.202c-5.86-6.17-6.162-13.794-0.27-19.905c7.956-8.251,18.066-12.154,29.203-13.697
			c13.659-1.892,27.43-2.293,41.173-3.154c13.225-0.829,26.402-2.438,39.602-3.67c11.72-1.094,23.455-2.027,35.163-3.236
			c14.336-1.481,28.637-3.304,42.977-4.744c17.314-1.738,34.481-4.471,51.642-7.247c13.764-2.226,27.432-4.978,40.424-10.214
			c11.54-4.65,19.429-13.614,26.689-23.275c11.749-15.635,25.566-29.073,43.645-37.051c28.732-12.677,56.643-7.425,77.097,18.37
			c14.264,17.988,21.08,38.439,23.453,60.854c0.856,8.086,2.079,16.126,1.937,24.285c1.051,11.37,0.245,22.764,0.412,34.146
			C482.409,305.396,482.967,308.723,481.935,311.956z"/>
		<path class="st3" d="M381.515,464.679c-0.718-6.089,1.542-10.257,3.024-14.592c0.561-1.64,1.651-1.132,2.812-0.664
			c3.074,1.238,5.972,2.76,8.825,4.838C391.509,457.8,386.04,459.652,381.515,464.679z"/>
		<path class="st4" d="M481.935,311.956c0.005-14.658,0.009-29.316,0.014-43.974c0.823,0.732,0.899,1.717,0.9,2.715
			c0.002,12.856,0.001,25.711-0.005,38.567C482.843,310.257,482.82,311.256,481.935,311.956z"/>
		<path class="st1" d="M444.875,366.014c0.655-1.732,0.451-4.45,3.467-3.764c2.458,0.559,5.422,0.673,5.635,4.421
			c0.122,2.148-0.27,5.595,2.402,5.6c2.4,0.004,3.613-3.192,4.1-5.695c1.507-7.746,0.052-15.057-6.436-19.722
			c-4.003-2.878-5.421-6.04-5.821-10.424c-0.516-5.663-0.703-11.303,0.981-16.803c1.349-4.408,4.237-5.77,7.957-4.013
			c1.611,0.761,2.751,1.569,2.179,3.795c-0.865,3.366-0.374,6.904-1.219,10.355c-1.49,6.081,1.527,10.984,5.898,14.46
			c12.124,9.642,8.8,27.614-2.928,35.44c-6.069,4.05-11.614,8.875-17.595,13.066c-3.72,2.607-7.827,1.006-11.404-0.517
			c-1.994-0.849-3.293-0.767-5.023,0.092c-6.218,3.087-12.326,2.777-17.76-1.583c-5.404-4.337-6.575-10.097-4.448-16.634
			c0.655-2.015,1.399-3.867-1.76-5.027c-8.838-3.245-11.913-8.661-9.918-16.532c1.881-7.421,9.67-12.987,17.558-11.343
			c5.62,1.171,6.386-1.12,6.232-5.526c-0.04-1.148,0.06-2.359,0.398-3.446c0.409-1.317,0.362-3.134,2.534-3.145
			c1.936-0.01,3.172,1.025,3.848,2.653c1.584,3.811,1.566,7.799,0.822,11.77c-1.318,7.031-1.343,6.877-8.7,5.694
			c-2.924-0.47-6.007-0.422-8.965-0.11c-4.249,0.449-7.577,4.54-6.77,7.801c1.086,4.386,4.261,5.857,9.376,4.289
			c2.066-0.633,4.073-1.468,6.158-2.023c2.013-0.536,4.149-0.432,5.571,1.224c1.736,2.021-0.498,3.403-1.416,4.711
			c-3.086,4.397-5.998,8.799-5.891,14.462c0.052,2.769,0.437,5.56,3.638,6.332c3.395,0.818,5.914-0.862,7.236-3.921
			c1.523-3.525,1.66-7.387,2.157-11.158c0.364-2.769,0.489-5.987,4.569-5.839c4.15,0.151,4.602,3.044,4.478,6.329
			c-0.113,2.995-0.204,5.995-0.176,8.991c0.016,1.763-0.365,3.987,2.148,4.407c1.995,0.333,3.291-0.973,4.497-2.516
			c1.474-1.885,1.443-4.005,1.57-6.154C445.176,372.75,443.711,369.274,444.875,366.014z"/>
		<path class="st1" d="M358.68,217.07c-0.265-6.363,1.501-11.825,6.606-15.921c5.959-4.782,13.447-2.327,14.452,5.105
			c0.842,6.224,0.941,12.572-2.542,18.366c-1.341,2.231-3.027,3.902-5.317,5.041c-6.267,3.116-10.958,1.045-12.496-5.7
			C358.872,221.725,358.898,219.37,358.68,217.07z"/>
		<path class="st5" d="M444.875,366.014c-0.203,3.339,0.874,6.783-0.826,9.998C444.256,372.674,442.972,369.213,444.875,366.014z"/>
	</g>
</g>
</svg>
